HIERARCHY
ROOT Hips
{
  OFFSET -249.206 91.1794 1438.34
  CHANNELS 6 Xposition Yposition Zposition Zrotation Xrotation Yrotation
  JOINT RightUpLeg
  {
    OFFSET -9.25736 -1.60276 -0.0141489
    CHANNELS 3 Zrotation Xrotation Yrotation
    JOINT RightLeg
    {
      OFFSET -0.0261462 -41.8834 0.119595
      CHANNELS 3 Zrotation Xrotation Yrotation
      JOINT RightFoot
      {
        OFFSET 0.0435549 -41.8447 0.0656632
        CHANNELS 3 Zrotation Xrotation Yrotation
        End Site
        {
          OFFSET 0 -7.69 17.5
        }
      }
    }
  }
  JOINT LeftUpLeg
  {
    OFFSET 9.28118 -1.60848 -0.0340219
    CHANNELS 3 Zrotation Xrotation Yrotation
    JOINT LeftLeg
    {
      OFFSET 0.0891769 -41.8706 -0.030324
      CHANNELS 3 Zrotation Xrotation Yrotation
      JOINT LeftFoot
      {
        OFFSET 0.081882 -41.8642 0.0552393
        CHANNELS 3 Zrotation Xrotation Yrotation
        End Site
        {
          OFFSET 0 -7.69 17.5
        }
      }
    }
  }
  JOINT Spine
  {
    OFFSET 0.0245383 14.3097 -0.0107096
    CHANNELS 3 Zrotation Xrotation Yrotation
    JOINT Spine1
    {
      OFFSET 0.0164624 9.7093 -0.0166642
      CHANNELS 3 Zrotation Xrotation Yrotation
      JOINT Spine2
      {
        OFFSET 0.016022 10.1176 -0.00578374
        CHANNELS 3 Zrotation Xrotation Yrotation
        JOINT Spine3
        {
          OFFSET 0.0307457 9.72075 -0.0178261
          CHANNELS 3 Zrotation Xrotation Yrotation
          JOINT Neck
          {
            OFFSET 0.00216936 10.3802 -0.0218255
            CHANNELS 3 Zrotation Xrotation Yrotation
            JOINT Head
            {
              OFFSET -0.0128028 9.4758 0.00643739
              CHANNELS 3 Zrotation Xrotation Yrotation
              End Site
              {
                OFFSET 0 15.95 0
              }
            }
          }
          JOINT RightShoulder
          {
            OFFSET -3.17914 6.91994 0.0145926
            CHANNELS 3 Zrotation Xrotation Yrotation
            JOINT RightArm
            {
              OFFSET -12.7712 -0.0103024 0.02298
              CHANNELS 3 Zrotation Xrotation Yrotation
              JOINT RightForeArm
              {
                OFFSET -26.5447 0.018023 0.00848051
                CHANNELS 3 Zrotation Xrotation Yrotation
                JOINT RightHand
                {
                  OFFSET -26.0143 -0.00700762 -0.0357054
                  CHANNELS 3 Zrotation Xrotation Yrotation
                  JOINT RightHandThumb1
                  {
                    OFFSET -2.48905 0.190105 3.12053
                    CHANNELS 3 Zrotation Xrotation Yrotation
                    JOINT RightHandThumb2
                    {
                      OFFSET -3.68274 0 0
                      CHANNELS 3 Zrotation Xrotation Yrotation
                      JOINT RightHandThumb3
                      {
                        OFFSET -2.55832 0 0
                        CHANNELS 3 Zrotation Xrotation Yrotation
                        End Site
                        {
                          OFFSET -2.194 0 0
                        }
                      }
                    }
                  }
                  JOINT RightInHandIndex
                  {
                    OFFSET -3.22368 0.508421 1.97842
                    CHANNELS 3 Zrotation Xrotation Yrotation
                    JOINT RightHandIndex1
                    {
                      OFFSET -5.21684 -0.091368 0.999158
                      CHANNELS 3 Zrotation Xrotation Yrotation
                      JOINT RightHandIndex2
                      {
                        OFFSET -3.61937 0 0
                        CHANNELS 3 Zrotation Xrotation Yrotation
                        JOINT RightHandIndex3
                        {
                          OFFSET -2.0521 0 0
                          CHANNELS 3 Zrotation Xrotation Yrotation
                          End Site
                          {
                            OFFSET -1.805 0 0
                          }
                        }
                      }
                    }
                  }
                  JOINT RightInHandMiddle
                  {
                    OFFSET -3.38211 0.517263 0.756737
                    CHANNELS 3 Zrotation Xrotation Yrotation
                    JOINT RightHandMiddle1
                    {
                      OFFSET -5.17411 -0.084 0.313895
                      CHANNELS 3 Zrotation Xrotation Yrotation
                      JOINT RightHandMiddle2
                      {
                        OFFSET -3.94947 0 0
                        CHANNELS 3 Zrotation Xrotation Yrotation
                        JOINT RightHandMiddle3
                        {
                          OFFSET -2.47579 0 0
                          CHANNELS 3 Zrotation Xrotation Yrotation
                          End Site
                          {
                            OFFSET -1.975 0 0
                          }
                        }
                      }
                    }
                  }
                  JOINT RightInHandRing
                  {
                    OFFSET -3.36516 0.537895 -0.128947
                    CHANNELS 3 Zrotation Xrotation Yrotation
                    JOINT RightHandRing1
                    {
                      OFFSET -4.63474 -0.022105 -0.478947
                      CHANNELS 3 Zrotation Xrotation Yrotation
                      JOINT RightHandRing2
                      {
                        OFFSET -3.44238 0 0
                        CHANNELS 3 Zrotation Xrotation Yrotation
                        JOINT RightHandRing3
                        {
                          OFFSET -2.3881 0 0
                          CHANNELS 3 Zrotation Xrotation Yrotation
                          End Site
                          {
                            OFFSET -1.857 0 0
                          }
                        }
                      }
                    }
                  }
                  JOINT RightInHandPinky
                  {
                    OFFSET -3.16105 0.469368 -1.20179
                    CHANNELS 3 Zrotation Xrotation Yrotation
                    JOINT RightHandPinky1
                    {
                      OFFSET -4.14105 -0.022105 -1.09053
                      CHANNELS 3 Zrotation Xrotation Yrotation
                      JOINT RightHandPinky2
                      {
                        OFFSET -2.75653 0 0
                        CHANNELS 3 Zrotation Xrotation Yrotation
                        JOINT RightHandPinky3
                        {
                          OFFSET -1.74189 0 0
                          CHANNELS 3 Zrotation Xrotation Yrotation
                          End Site
                          {
                            OFFSET -1.645 0 0
                          }
                        }
                      }
                    }
                  }
                }
              }
            }
          }
          JOINT LeftShoulder
          {
            OFFSET 3.19804 6.89317 -0.0298735
            CHANNELS 3 Zrotation Xrotation Yrotation
            JOINT LeftArm
            {
              OFFSET 12.7533 -0.0579339 -0.0756479
              CHANNELS 3 Zrotation Xrotation Yrotation
              JOINT LeftForeArm
              {
                OFFSET 26.4959 -0.0363035 -0.0575083
                CHANNELS 3 Zrotation Xrotation Yrotation
                JOINT LeftHand
                {
                  OFFSET 26.0049 0.0988007 0.0466122
                  CHANNELS 3 Zrotation Xrotation Yrotation
                  JOINT LeftHandThumb1
                  {
                    OFFSET 2.48905 0.190105 3.12053
                    CHANNELS 3 Zrotation Xrotation Yrotation
                    JOINT LeftHandThumb2
                    {
                      OFFSET 3.68274 0 0
                      CHANNELS 3 Zrotation Xrotation Yrotation
                      JOINT LeftHandThumb3
                      {
                        OFFSET 2.55832 0 0
                        CHANNELS 3 Zrotation Xrotation Yrotation
                        End Site
                        {
                          OFFSET 2.194 0 0
                        }
                      }
                    }
                  }
                  JOINT LeftInHandIndex
                  {
                    OFFSET 3.22368 0.508421 1.97842
                    CHANNELS 3 Zrotation Xrotation Yrotation
                    JOINT LeftHandIndex1
                    {
                      OFFSET 5.21684 -0.091368 0.999158
                      CHANNELS 3 Zrotation Xrotation Yrotation
                      JOINT LeftHandIndex2
                      {
                        OFFSET 3.61937 0 0
                        CHANNELS 3 Zrotation Xrotation Yrotation
                        JOINT LeftHandIndex3
                        {
                          OFFSET 2.0521 0 0
                          CHANNELS 3 Zrotation Xrotation Yrotation
                          End Site
                          {
                            OFFSET 1.805 0 0
                          }
                        }
                      }
                    }
                  }
                  JOINT LeftInHandMiddle
                  {
                    OFFSET 3.38211 0.517263 0.756737
                    CHANNELS 3 Zrotation Xrotation Yrotation
                    JOINT LeftHandMiddle1
                    {
                      OFFSET 5.17411 -0.084 0.313895
                      CHANNELS 3 Zrotation Xrotation Yrotation
                      JOINT LeftHandMiddle2
                      {
                        OFFSET 3.94947 0 0
                        CHANNELS 3 Zrotation Xrotation Yrotation
                        JOINT LeftHandMiddle3
                        {
                          OFFSET 2.47579 0 0
                          CHANNELS 3 Zrotation Xrotation Yrotation
                          End Site
                          {
                            OFFSET 1.975 0 0
                          }
                        }
                      }
                    }
                  }
                  JOINT LeftInHandRing
                  {
                    OFFSET 3.36516 0.537895 -0.128947
                    CHANNELS 3 Zrotation Xrotation Yrotation
                    JOINT LeftHandRing1
                    {
                      OFFSET 4.63474 -0.022105 -0.478947
                      CHANNELS 3 Zrotation Xrotation Yrotation
                      JOINT LeftHandRing2
                      {
                        OFFSET 3.44238 0 0
                        CHANNELS 3 Zrotation Xrotation Yrotation
                        JOINT LeftHandRing3
                        {
                          OFFSET 2.3881 0 0
                          CHANNELS 3 Zrotation Xrotation Yrotation
                          End Site
                          {
                            OFFSET 1.857 0 0
                          }
                        }
                      }
                    }
                  }
                  JOINT LeftInHandPinky
                  {
                    OFFSET 3.16105 0.469368 -1.20179
                    CHANNELS 3 Zrotation Xrotation Yrotation
                    JOINT LeftHandPinky1
                    {
                      OFFSET 4.14105 -0.022105 -1.09053
                      CHANNELS 3 Zrotation Xrotation Yrotation
                      JOINT LeftHandPinky2
                      {
                        OFFSET 2.75653 0 0
                        CHANNELS 3 Zrotation Xrotation Yrotation
                        JOINT LeftHandPinky3
                        {
                          OFFSET 1.74189 0 0
                          CHANNELS 3 Zrotation Xrotation Yrotation
                          End Site
                          {
                            OFFSET 1.645 0 0
                          }
                        }
                      }
                    }
                  }
                }
              }
            }
          }
        }
      }
    }
  }
}
MOTION
Frames:	6
Frame Time:	0.00833333
-248.05 86.6009 1462.41 10.1939 -22.2511 -156.637 -17.3016 -49.6279 -13.9974 -6.8723 33.1494 7.22447 13.3038 -6.89836 17.4127 26.7555 -47.915 27.185 6.72964 43.3581 -8.29626 -9.85827 -13.4079 -3.87966 1.81128 17.6939 7.99907 0.661982 4.48543 2.33637 0.992309 7.27538 4.11896 -0.427865 -0.163723 -0.358965 -0.428459 -0.163479 -0.355532 -7.90442 -3.02319 -6.33126 -0.31064 -7.59357 7.1678 55.6325 20.3828 61.3287 -11.413 -49.963 -20.2347 9.42318 -9.99208 -13.8324 28.184 10.7294 19.1592 -1.5464e-14 1.59028e-15 -10 -8.41226e-16 -4.77083e-15 -10 -3.18055e-15 -1.59028e-15 -0 19.9818 0.871897 2.3964 24 7.95139e-16 3.18055e-15 20 -3.18055e-15 1.27222e-14 -3.18055e-15 -1.59028e-15 -0 20 3.57812e-15 -6.36111e-15 24 4.77083e-15 -3.18055e-15 20 -9.54166e-15 -3.18055e-15 -3.18055e-15 -1.59028e-15 -0 19.9748 -1.02565 -2.81938 24 0 3.18055e-15 20 -6.36111e-15 -0 -3.18055e-15 -1.59028e-15 -0 19.7815 -3.00948 -8.30515 24 -3.18055e-15 3.18055e-15 20 -6.36111e-15 -3.18055e-15 -7.78684 -9.84469 -13.8336 -16.2724 45.6367 -90.8914 -15.0858 -76.9587 -11.2207 13.0463 -20.9705 24.3737 -28.184 10.7294 -19.1592 8.07405e-15 0 10 6.45924e-15 0 10 -1.59028e-15 -3.18055e-15 -1.59028e-15 -19.9818 0.871897 -2.3964 -24 3.18055e-15 -1.11319e-14 -20 0 -9.54166e-15 -1.59028e-15 -3.18055e-15 -1.59028e-15 -20 -6.36111e-15 -1.84652e-15 -24 -3.18055e-15 -0 -20 0 -6.36111e-15 -1.59028e-15 -3.18055e-15 -1.59028e-15 -19.9748 -1.02565 2.81938 -24 -3.18055e-15 1.11319e-14 -20 9.54166e-15 -3.18055e-15 -1.59028e-15 -3.18055e-15 -1.59028e-15 -19.7815 -3.00948 8.30515 -24 3.18055e-15 -1.43125e-14 -20 3.18055e-15 -1.27222e-14 
-248.06 86.6009 1462.42 10.1898 -22.2619 -156.647 -17.3092 -49.6374 -14.0035 -6.8906 33.1489 7.2608 13.3126 -6.90951 17.414 26.7594 -47.927 27.1904 6.7262 43.3745 -8.28757 -9.84531 -13.4175 -3.86273 1.80795 17.6936 8.00153 0.66217 4.48524 2.33613 0.991729 7.27481 4.11909 -0.427871 -0.163865 -0.358834 -0.428465 -0.163567 -0.35533 -7.91992 -3.03155 -6.328 -0.310463 -7.58814 7.16869 55.6301 20.3893 61.3365 -11.4177 -49.9449 -20.2362 9.41988 -9.98865 -13.8219 28.184 10.7294 19.1592 1.3344e-15 -1.59028e-15 -10 9.90163e-15 -7.95139e-15 -10 -7.95139e-16 -1.59028e-15 -3.18055e-15 19.9818 0.871897 2.3964 24 3.97569e-15 1.27222e-14 20 1.59028e-15 6.36111e-15 -7.95139e-16 -1.59028e-15 -3.18055e-15 20 -1.19271e-15 -0 24 7.95139e-15 1.90833e-14 20 3.18055e-15 -9.54166e-15 -7.95139e-16 -1.59028e-15 -3.18055e-15 19.9748 -1.02565 -2.81938 24 -4.77083e-15 3.18055e-15 20 3.18055e-15 -0 -7.95139e-16 -1.59028e-15 -3.18055e-15 19.7815 -3.00948 -8.30515 24 0 6.36111e-15 20 -3.18055e-15 6.36111e-15 -7.79684 -9.84511 -13.83 -16.314 45.6499 -90.8582 -15.0989 -76.9596 -11.2344 13.037 -20.9519 24.3557 -28.184 10.7294 -19.1592 9.86349e-16 1.27222e-14 10 -8.07405e-16 0 10 3.18055e-15 -3.18055e-15 -1.59028e-15 -19.9818 0.871897 -2.3964 -24 6.36111e-15 7.95139e-15 -20 -3.18055e-15 3.18055e-15 3.18055e-15 -3.18055e-15 -1.59028e-15 -20 -3.18055e-15 7.9607e-15 -24 6.36111e-15 -7.95139e-15 -20 -9.54166e-15 -6.36111e-15 3.18055e-15 -3.18055e-15 -1.59028e-15 -19.9748 -1.02565 2.81938 -24 -3.18055e-15 1.11319e-14 -20 0 3.18055e-15 3.18055e-15 -3.18055e-15 -1.59028e-15 -19.7815 -3.00948 8.30515 -24 -3.18055e-15 7.95139e-15 -20 -3.18055e-15 1.27222e-14 
-248.071 86.6009 1462.42 10.1883 -22.277 -156.663 -17.3094 -49.6492 -13.9997 -6.89774 33.147 7.27686 13.3166 -6.91454 17.4149 26.7566 -47.9371 27.1949 6.71903 43.3855 -8.27422 -9.83806 -13.4265 -3.85589 1.80657 17.6936 8.00382 0.662354 4.48507 2.3359 0.991187 7.27422 4.11914 -0.428889 -0.164006 -0.358701 -0.429494 -0.163654 -0.355126 -7.93776 -3.04092 -6.31787 -0.308085 -7.58112 7.16952 55.6383 20.3931 61.3263 -11.4127 -49.9238 -20.2173 9.41266 -9.98343 -13.8155 28.184 10.7294 19.1592 3.35291e-15 -1.59028e-15 -10 4.03702e-15 0 -10 7.95139e-16 0 -6.36111e-15 19.9818 0.871897 2.3964 24 7.95139e-16 -0 20 1.59028e-15 -0 7.95139e-16 0 -6.36111e-15 20 -5.1684e-15 6.36111e-15 24 1.59028e-15 3.18055e-15 20 3.18055e-15 -6.36111e-15 7.95139e-16 0 -6.36111e-15 19.9748 -1.02565 -2.81938 24 1.59028e-15 -0 20 0 3.18055e-15 7.95139e-16 0 -6.36111e-15 19.7815 -3.00948 -8.30515 24 0 6.36111e-15 20 -3.18055e-15 9.54166e-15 -7.80698 -9.83935 -13.8258 -16.3325 45.6638 -90.8414 -15.1048 -76.9629 -11.251 13.0371 -20.9466 24.3529 -28.184 10.7294 -19.1592 -3.22962e-15 0 10 8.25299e-15 1.27222e-14 10 3.18055e-15 3.18055e-15 -9.54166e-15 -19.9818 0.871897 -2.3964 -24 -3.18055e-15 2.22639e-14 -20 -3.18055e-15 3.18055e-15 3.18055e-15 3.18055e-15 -9.54166e-15 -20 0 3.44767e-16 -24 9.54166e-15 1.43125e-14 -20 -6.36111e-15 1.27222e-14 3.18055e-15 3.18055e-15 -9.54166e-15 -19.9748 -1.02565 2.81938 -24 -3.18055e-15 3.18055e-15 -20 6.36111e-15 -0 3.18055e-15 3.18055e-15 -9.54166e-15 -19.7815 -3.00948 8.30515 -24 -9.54166e-15 6.36111e-15 -20 3.18055e-15 9.54166e-15 
-248.081 86.601 1462.43 10.1832 -22.2814 -156.68 -17.3011 -49.6495 -13.9873 -6.9051 33.1214 7.29572 13.3221 -6.90168 17.4069 26.7393 -47.9439 27.1804 6.71836 43.3925 -8.2707 -9.83083 -13.4326 -3.83606 1.80539 17.6936 8.00577 0.662533 4.48494 2.33567 0.990669 7.27363 4.11914 -0.429369 -0.164145 -0.358567 -0.429975 -0.163741 -0.354922 -7.94911 -3.05664 -6.31742 -0.297773 -7.57736 7.17049 55.683 20.4072 61.2833 -11.4062 -49.8837 -20.1586 9.40771 -9.97996 -13.8084 28.184 10.7294 19.1592 -4.03702e-15 0 -10 -3.82426e-15 -7.95139e-15 -10 7.95139e-16 1.59028e-15 -3.18055e-15 19.9818 0.871897 2.3964 24 0 3.18055e-15 20 4.77083e-15 -0 7.95139e-16 1.59028e-15 -3.18055e-15 20 1.59028e-15 -3.18055e-15 24 3.18055e-15 3.18055e-15 20 3.18055e-15 -3.18055e-15 7.95139e-16 1.59028e-15 -3.18055e-15 19.9748 -1.02565 -2.81938 24 -3.18055e-15 3.18055e-15 20 3.18055e-15 -0 7.95139e-16 1.59028e-15 -3.18055e-15 19.7815 -3.00948 -8.30515 24 -1.59028e-15 6.36111e-15 20 0 -0 -7.79311 -9.81516 -13.8437 -16.3927 45.644 -90.7968 -15.0633 -76.94 -11.2304 13.0366 -20.9483 24.3541 -28.184 10.7294 -19.1592 2.6688e-15 3.18055e-15 10 -3.79044e-15 3.18055e-15 10 -1.59028e-15 3.18055e-15 -1.59028e-15 -19.9818 0.871897 -2.3964 -24 -9.54166e-15 4.77083e-15 -20 0 9.54166e-15 -1.59028e-15 3.18055e-15 -1.59028e-15 -20 3.18055e-15 9.08042e-15 -24 3.18055e-15 -1.59028e-15 -20 0 9.54166e-15 -1.59028e-15 3.18055e-15 -1.59028e-15 -19.9748 -1.02565 2.81938 -24 -3.18055e-15 -4.77083e-15 -20 6.36111e-15 9.54166e-15 -1.59028e-15 3.18055e-15 -1.59028e-15 -19.7815 -3.00948 8.30515 -24 -3.18055e-15 2.54444e-14 -20 9.54166e-15 -0 
-248.092 86.601 1462.43 10.1797 -22.2825 -156.69 -17.2973 -49.6475 -13.9813 -6.92132 33.109 7.31145 13.3349 -6.90416 17.4072 26.7255 -47.9486 27.1708 6.72685 43.4037 -8.2794 -9.82973 -13.4419 -3.81981 1.80595 17.6938 8.00226 0.662707 4.48482 2.33543 0.990165 7.27302 4.11912 -0.429842 -0.164283 -0.358432 -0.430449 -0.163826 -0.354718 -7.96453 -3.0672 -6.31054 -0.296713 -7.57074 7.17171 55.6826 20.4079 61.2866 -11.4057 -49.8624 -20.1542 9.40275 -9.97042 -13.8009 28.184 10.7294 19.1592 -7.10953e-15 3.18055e-15 -10 2.98303e-15 3.18055e-15 -10 4.77083e-15 -3.18055e-15 -0 19.9818 0.871897 2.3964 24 8.74653e-15 -0 20 -1.59028e-15 -6.36111e-15 4.77083e-15 -3.18055e-15 -0 20 2.78299e-15 6.36111e-15 24 3.18055e-15 6.36111e-15 20 6.36111e-15 6.36111e-15 4.77083e-15 -3.18055e-15 -0 19.9748 -1.02565 -2.81938 24 -4.77083e-15 -3.18055e-15 20 6.36111e-15 -9.54166e-15 4.77083e-15 -3.18055e-15 -0 19.7815 -3.00948 -8.30515 24 3.18055e-15 3.18055e-15 20 0 -9.54166e-15 -7.79416 -9.80863 -13.8386 -16.4119 45.6408 -90.7877 -15.0823 -76.9424 -11.2526 13.0423 -20.9353 24.3448 -28.184 10.7294 -19.1592 5.60818e-16 -3.18055e-15 10 9.59939e-15 -6.36111e-15 10 1.59028e-15 -3.18055e-15 -3.18055e-15 -19.9818 0.871897 -2.3964 -24 6.36111e-15 3.18055e-15 -20 -3.18055e-15 1.27222e-14 1.59028e-15 -3.18055e-15 -3.18055e-15 -20 -6.36111e-15 -4.82363e-15 -24 3.18055e-15 -6.36111e-15 -20 3.18055e-15 6.36111e-15 1.59028e-15 -3.18055e-15 -3.18055e-15 -19.9748 -1.02565 2.81938 -24 0 7.95139e-15 -20 3.18055e-15 1.59028e-14 1.59028e-15 -3.18055e-15 -3.18055e-15 -19.7815 -3.00948 8.30515 -24 6.36111e-15 6.36111e-15 -20 -3.18055e-15 9.54166e-15 
-248.105 86.601 1462.43 10.181 -22.2815 -156.688 -17.295 -49.6444 -13.9789 -6.93582 33.1018 7.30352 13.3473 -6.8942 17.4209 26.702 -47.9567 27.1474 6.73354 43.4141 -8.2834 -9.82826 -13.4485 -3.807 1.80902 17.6943 7.99072 0.662875 4.48472 2.3352 0.989667 7.27241 4.11908 -0.43031 -0.164418 -0.358296 -0.430917 -0.163911 -0.354514 -7.98293 -3.07307 -6.30265 -0.294952 -7.56325 7.17363 55.6823 20.4163 61.2858 -11.4048 -49.8543 -20.1398 9.40373 -9.96024 -13.794 28.184 10.7294 19.1592 -9.96927e-15 -1.59028e-15 -10 1.3344e-15 -1.59028e-15 -10 2.38542e-15 -3.18055e-15 3.18055e-15 19.9818 0.871897 2.3964 24 2.38542e-15 -3.18055e-15 20 -3.18055e-15 -1.27222e-14 2.38542e-15 -3.18055e-15 3.18055e-15 20 -1.59028e-15 -9.54166e-15 24 1.59028e-15 -9.54166e-15 20 0 3.18055e-15 2.38542e-15 -3.18055e-15 3.18055e-15 19.9748 -1.02565 -2.81938 24 0 -0 20 -3.18055e-15 -6.36111e-15 2.38542e-15 -3.18055e-15 3.18055e-15 19.7815 -3.00948 -8.30515 24 -4.77083e-15 3.18055e-15 20 3.18055e-15 -1.27222e-14 -7.79847 -9.80421 -13.8347 -16.4228 45.6486 -90.7846 -15.2021 -76.9778 -11.3706 13.054 -20.9017 24.3211 -28.184 10.7294 -19.1592 -4.28361e-15 -3.18055e-15 10 -1.41972e-14 9.54166e-15 10 -1.59028e-15 6.36111e-15 -0 -19.9818 0.871897 -2.3964 -24 0 -3.18055e-15 -20 0 6.36111e-15 -1.59028e-15 6.36111e-15 -0 -20 -3.18055e-15 6.44497e-15 -24 1.27222e-14 -1.59028e-15 -20 9.54166e-15 -3.18055e-15 -1.59028e-15 6.36111e-15 -0 -19.9748 -1.02565 2.81938 -24 0 1.11319e-14 -20 3.18055e-15 -0 -1.59028e-15 6.36111e-15 -0 -19.7815 -3.00948 8.30515 -24 -6.36111e-15 1.90833e-14 -20 -9.54166e-15 3.18055e-15 
